<svg width="34" height="30" viewBox="0 0 34 30" fill="none" xmlns="http://www.w3.org/2000/svg">
<path fill-rule="evenodd" clip-rule="evenodd" d="M3.36937 5.05667C2.35319 6.84439 2 9.03599 2 10.5C2 11.0523 1.55228 11.5 1 11.5C0.447715 11.5 0 11.0523 0 10.5C0 8.79735 0.396811 6.23895 1.63063 4.06833C2.89212 1.84905 5.06398 0 8.5 0C12.9898 0 15.4777 1.77375 16.6515 3.60585C17.9929 1.82095 20.4904 0 24.5 0C28.0895 0 30.2784 1.54692 31.5245 3.45275C32.7277 5.29296 33 7.37965 33 8.5C33 8.59154 33.0022 8.69786 33.0048 8.81841C33.0297 10.004 33.0835 12.5651 31.3255 15.9599C29.4035 19.6713 25.3716 24.2926 17.0183 29.3552C16.862 29.4499 16.6828 29.5 16.5 29.5C16.2107 29.5 15.9442 29.3914 15.7884 29.322C15.5934 29.2351 15.3695 29.1133 15.1182 28.9599C14.6133 28.6518 13.9339 28.1772 13.049 27.4897C11.2763 26.1123 8.62532 23.8383 4.81226 20.226C4.41132 19.8461 4.39422 19.2132 4.77405 18.8123C5.15388 18.4113 5.78681 18.3942 6.18774 18.774C9.97468 22.3617 12.5737 24.5877 14.276 25.9103C15.1286 26.5728 15.7429 26.9982 16.1599 27.2526C16.2512 27.3083 16.33 27.354 16.3973 27.391C24.2555 22.5574 27.8757 18.2723 29.5495 15.0401C31.0721 12.0999 31.0281 9.96353 31.0048 8.83298C31.0023 8.71 31 8.59892 31 8.5C31 7.62035 30.7723 5.95704 29.8505 4.54725C28.9716 3.20308 27.4105 2 24.5 2C19.8072 2 17.8508 4.97734 17.4578 6.28735C17.3207 6.74459 16.8794 7.04111 16.4043 6.99541C15.9291 6.9497 15.5525 6.5745 15.505 6.0995C15.3951 5.00122 14.0458 2 8.5 2C5.93602 2 4.35788 3.31761 3.36937 5.05667ZM16.6698 27.5219C16.67 27.522 16.6668 27.5212 16.6601 27.5188C16.6664 27.5205 16.6697 27.5217 16.6698 27.5219Z" fill="#961914"/>
</svg>
