<svg width="34" height="29" viewBox="0 0 34 29" fill="none" xmlns="http://www.w3.org/2000/svg">
<path fill-rule="evenodd" clip-rule="evenodd" d="M3.64884 4.92325C2.53908 6.61611 2.07468 8.684 1.99849 10.0555C1.96785 10.6069 1.49599 11.0291 0.944558 10.9985C0.393123 10.9678 -0.0290681 10.496 0.0015672 9.94453C0.092041 8.316 0.627641 5.88389 1.97621 3.82675C3.35213 1.72789 5.59895 0 9.00003 0C13.379 0 15.8536 1.68725 17.0621 3.47029C18.2834 1.71802 20.6074 0 24.5 0C28.0877 0 30.402 1.54532 31.774 3.63947C33.1057 5.67212 33.5 8.13747 33.5 10C33.5 12.0446 32.3732 15.2506 29.868 18.6552C27.3372 22.0944 23.3434 25.8183 17.4626 28.8866C17.1782 29.035 16.8398 29.0379 16.5528 28.8944C14.7815 28.0088 10.1619 25.0761 5.29292 20.2071C4.9024 19.8166 4.9024 19.1834 5.29292 18.7929C5.68344 18.4024 6.31661 18.4024 6.70713 18.7929C11.0448 23.1305 15.1437 25.8455 16.9993 26.8689C22.3633 23.987 25.9777 20.5675 28.2571 17.4698C30.6269 14.2494 31.5 11.4554 31.5 10C31.5 8.36253 31.1443 6.32788 30.1011 4.73553C29.0981 3.20468 27.4124 2 24.5 2C19.8359 2 18.2326 4.93625 17.9806 6.19612C17.8835 6.68163 17.4457 7.02299 16.9512 6.99881C16.4566 6.97462 16.0543 6.59218 16.005 6.0995C15.8952 5.00122 14.5458 2 9.00003 2C6.4011 2 4.73125 3.27211 3.64884 4.92325ZM10.5 10C10.823 10 11.126 10.156 11.3138 10.4188L15.5 16.2795L17.1863 13.9188C17.374 13.656 17.6771 13.5 18 13.5H22C22.5523 13.5 23 13.9477 23 14.5C23 15.0523 22.5523 15.5 22 15.5H18.5146L16.3138 18.5812C16.126 18.844 15.823 19 15.5 19C15.1771 19 14.874 18.844 14.6863 18.5812L10.5 12.7205L8.81376 15.0812C8.62605 15.344 8.32298 15.5 8.00003 15.5H1.50003C0.947743 15.5 0.500028 15.0523 0.500028 14.5C0.500028 13.9477 0.947743 13.5 1.50003 13.5H7.48541L9.68629 10.4188C9.87401 10.156 10.1771 10 10.5 10Z" fill="#961914"/>
</svg>
